<svg xmlns="http://www.w3.org/2000/svg" width="26.657" height="26" viewBox="0 0 26.657 26"><defs><style>.a{opacity:0.26;}</style></defs><path class="a" d="M13.329,0A13.33,13.33,0,0,0,9.115,25.976c.666.122.91-.29.91-.641,0-.317-.012-1.368-.019-2.481-3.706.805-4.49-1.572-4.49-1.572a3.534,3.534,0,0,0-1.48-1.949c-1.211-.827.092-.81.092-.81A2.8,2.8,0,0,1,6.171,19.9,2.837,2.837,0,0,0,10.05,21a2.849,2.849,0,0,1,.846-1.78c-2.959-.337-6.071-1.481-6.071-6.588A5.16,5.16,0,0,1,6.2,9.057a4.8,4.8,0,0,1,.132-3.529S7.445,5.17,9.993,6.895a12.618,12.618,0,0,1,6.672,0c2.543-1.726,3.662-1.367,3.662-1.367a4.781,4.781,0,0,1,.133,3.527,5.145,5.145,0,0,1,1.37,3.577c0,5.12-3.117,6.248-6.087,6.578a3.175,3.175,0,0,1,.9,2.467c0,1.782-.018,3.218-.018,3.658,0,.355.242.77.918.639A13.331,13.331,0,0,0,13.329,0Z"/></svg>