<svg xmlns="http://www.w3.org/2000/svg" width="7.565" height="10.329" viewBox="0 0 7.565 10.329"><g transform="translate(0 0)"><path d="M-580.792-1987.6a3.764,3.764,0,0,1-3.759-3.759,3.764,3.764,0,0,1,3.759-3.76,3.764,3.764,0,0,1,3.759,3.76A3.764,3.764,0,0,1-580.792-1987.6Zm0-5.981a2.225,2.225,0,0,0-2.222,2.222,2.224,2.224,0,0,0,2.222,2.221,2.224,2.224,0,0,0,2.221-2.221A2.224,2.224,0,0,0-580.792-1993.581Z" transform="translate(584.574 1995.119)"/><path d="M37.866,61.07c-.1,0-.235-.128-.235-.128-4.059-4.317-3.525-6.441-3.525-6.441s1.175,3.468,3.759,3.477" transform="translate(-34.083 -50.74)"/><path d="M69.5,61.07c.1,0,.235-.128.235-.128,4.059-4.317,3.525-6.441,3.525-6.441s-1.175,3.468-3.759,3.477" transform="translate(-65.717 -50.74)"/></g></svg>